<?xml version="1.0" standalone="no"?>
<!DOCTYPE svg PUBLIC "-//W3C//DTD SVG 20010904//EN"
 "http://www.w3.org/TR/2001/REC-SVG-20010904/DTD/svg10.dtd">
<svg version="1.0" xmlns="http://www.w3.org/2000/svg"
 width="1200.000000pt" height="1200.000000pt" viewBox="0 0 1200.000000 1200.000000"
 preserveAspectRatio="xMidYMid meet">
<metadata>
Created by potrace 1.14, written by Peter Selinger 2001-2017
</metadata>
<g transform="translate(0.000000,1200.000000) scale(0.100000,-0.100000)"
fill="#000000" stroke="none">
<path d="M4520 10553 c-68 -8 -231 -36 -280 -49 -30 -7 -64 -15 -75 -17 -59
-10 -141 -31 -149 -38 -6 -5 -11 -35 -13 -66 -8 -124 -8 -165 -3 -168 3 -2 30
-6 60 -9 30 -4 66 -9 80 -11 14 -2 50 -7 80 -10 93 -11 332 -62 412 -89 137
-46 201 -96 228 -180 13 -39 16 -228 5 -316 -3 -25 -7 -65 -10 -90 -2 -25 -8
-83 -14 -130 -6 -47 -13 -101 -16 -120 -8 -64 -17 -135 -20 -150 -7 -39 -16
-98 -19 -125 -20 -161 -50 -315 -62 -316 -8 -1 -17 -2 -21 -3 -5 -1 -37 -6
-73 -10 -36 -4 -76 -9 -90 -11 -14 -2 -63 -7 -110 -10 -47 -4 -103 -9 -125
-11 -314 -26 -958 -25 -1038 1 -7 2 -30 7 -52 10 -304 44 -671 224 -1005 495
-25 20 -51 40 -57 44 -8 4 -46 -27 -103 -84 l-91 -91 67 -97 c275 -400 535
-634 840 -755 139 -55 226 -76 459 -107 68 -9 714 -6 805 4 25 2 93 7 152 11
59 3 120 8 135 10 22 2 176 16 203 17 25 1 26 -6 13 -84 -7 -46 -20 -132 -29
-193 -8 -60 -17 -121 -19 -135 -2 -14 -11 -74 -20 -135 -8 -60 -18 -126 -21
-145 -6 -45 -23 -173 -30 -225 -2 -22 -9 -71 -14 -110 -12 -88 -18 -137 -25
-200 -3 -27 -8 -66 -10 -85 -10 -75 -15 -117 -20 -165 -3 -27 -8 -74 -11 -103
l-6 -53 -67 -34 c-442 -229 -1009 -631 -1401 -993 -561 -519 -945 -1049 -1163
-1603 -64 -162 -133 -413 -151 -549 -25 -185 -28 -216 -28 -348 0 -159 7 -222
37 -345 39 -158 107 -284 202 -374 49 -46 140 -101 213 -128 87 -31 80 -30
145 -39 28 -4 61 -10 75 -12 34 -6 268 -6 300 0 14 2 50 7 81 11 31 3 65 7 75
9 11 2 37 6 59 10 441 77 984 326 1486 682 102 73 345 258 359 274 3 3 29 25
58 49 l52 43 16 -38 c101 -244 252 -442 381 -501 114 -53 287 -31 377 48 91
80 113 208 71 409 -17 84 -73 228 -185 475 -39 85 -70 160 -70 166 0 6 12 23
28 39 113 115 256 270 392 424 14 16 30 34 35 40 117 130 419 499 540 661 33
44 63 82 66 85 23 21 330 457 463 657 251 380 413 657 577 984 l88 176 73 -13
c188 -33 244 -46 388 -91 151 -46 240 -82 380 -152 283 -141 557 -359 735
-584 17 -21 35 -44 40 -50 61 -69 215 -333 262 -449 121 -302 174 -565 175
-878 2 -593 -184 -1104 -563 -1551 -78 -93 -244 -258 -329 -330 -36 -30 -67
-56 -70 -59 -16 -17 -181 -136 -280 -201 -471 -312 -1067 -563 -1790 -753
-125 -33 -453 -111 -510 -121 -14 -2 -81 -16 -149 -30 -104 -21 -295 -55 -391
-70 -14 -2 -68 -10 -120 -19 -52 -8 -115 -18 -140 -21 -185 -25 -172 -20 -164
-63 4 -21 14 -75 23 -122 l16 -85 100 1 c103 1 385 12 465 19 25 2 88 6 140
10 52 3 109 8 125 10 17 2 62 7 100 10 39 4 86 8 105 10 19 2 63 7 97 10 34 3
70 7 80 9 10 2 47 7 83 11 36 4 74 9 85 11 11 2 40 7 65 10 38 4 271 42 374
60 421 73 978 229 1351 378 165 66 136 53 358 161 789 382 1327 925 1572 1589
36 99 90 290 101 356 3 19 7 43 10 52 3 10 7 30 10 45 2 16 6 42 9 58 2 17 7
57 10 90 3 33 8 78 10 100 6 59 6 340 0 410 -10 107 -15 150 -19 171 -2 12 -7
39 -10 60 -15 98 -19 115 -45 214 -166 643 -567 1204 -1139 1593 -46 32 -85
57 -87 57 -3 0 -28 15 -57 34 -113 71 -370 195 -513 245 -160 58 -381 122
-465 136 -19 3 -51 10 -70 15 -37 9 -47 11 -204 35 -55 9 -101 17 -102 18 -2
1 1 18 5 37 12 54 5 160 -14 215 -71 204 -354 404 -781 551 -53 18 -297 85
-299 81 -1 -1 -25 -41 -53 -90 -29 -48 -52 -91 -52 -96 0 -5 46 -35 103 -67
345 -195 466 -339 463 -548 -1 -36 -5 -50 -16 -51 -8 -1 -80 -5 -160 -9 -227
-10 -482 -35 -660 -66 -30 -5 -71 -12 -90 -14 -29 -4 -123 -22 -215 -40 -217
-44 -579 -146 -774 -218 -57 -21 -107 -38 -112 -38 -4 0 -6 15 -4 33 3 17 7
51 10 75 3 23 8 63 11 90 3 26 9 72 14 102 5 30 12 73 15 95 2 22 7 51 9 65 3
14 7 43 11 65 11 74 30 192 40 245 3 14 8 42 11 64 3 21 8 48 10 60 2 11 11
59 19 106 8 47 17 99 20 115 3 17 8 37 11 46 2 9 7 32 9 50 5 39 44 232 48
235 1 1 20 4 42 8 22 3 51 8 65 10 14 2 81 14 150 26 69 11 168 30 220 40 52
11 111 22 130 25 19 3 55 11 80 16 25 6 56 13 70 15 14 3 45 10 70 15 25 6 56
13 70 15 247 47 1068 262 1450 380 532 165 776 263 877 349 95 81 127 236 69
341 -67 124 -245 197 -507 208 -82 4 -106 1 -170 -20 -41 -14 -83 -29 -94 -34
-38 -18 -437 -190 -440 -190 -3 0 -28 -11 -57 -24 -227 -104 -753 -288 -1083
-380 -71 -20 -152 -43 -180 -51 -60 -18 -465 -113 -515 -121 -19 -3 -52 -9
-72 -14 -21 -4 -38 -4 -38 0 0 11 46 208 66 283 8 32 17 68 20 80 4 22 33 121
61 212 30 94 70 171 158 299 164 242 167 337 11 491 -204 202 -598 368 -951
400 -87 8 -192 11 -225 8z m2399 -3820 c-25 -65 -166 -341 -243 -474 -89 -155
-115 -197 -241 -398 -11 -16 -131 -195 -163 -241 -81 -119 -263 -368 -341
-469 -53 -68 -105 -135 -116 -150 -23 -31 -137 -174 -145 -181 -3 -3 -25 -30
-50 -60 -25 -30 -49 -60 -55 -66 -5 -6 -30 -36 -55 -65 -62 -73 -185 -214
-241 -274 -26 -27 -65 -70 -87 -95 -23 -24 -43 -42 -45 -40 -4 5 -55 183 -61
215 -2 11 -9 38 -14 60 -11 42 -48 219 -56 270 -5 30 -9 51 -26 170 -5 33 -12
92 -15 130 -4 39 -8 81 -10 94 -19 118 -25 662 -11 931 5 85 9 160 9 167 0 6
43 30 96 54 53 23 116 50 140 61 232 104 716 256 933 293 18 3 40 8 48 10 8 2
31 7 50 10 19 3 42 8 50 10 8 2 38 7 65 10 28 4 59 9 70 10 11 2 47 6 80 10
33 3 76 8 95 10 19 3 76 7 125 11 50 4 91 7 92 8 1 0 31 2 67 4 l66 2 -11 -27z
m-2529 -845 c-7 -96 -4 -688 4 -798 18 -267 31 -417 46 -540 5 -41 11 -97 15
-125 5 -45 8 -69 20 -155 21 -141 98 -550 111 -583 8 -22 -318 -271 -565 -431
-150 -98 -346 -209 -498 -282 -72 -35 -135 -64 -140 -64 -5 0 -27 -9 -49 -19
-89 -43 -342 -121 -442 -137 -20 -3 -39 -7 -42 -9 -3 -2 -44 -7 -90 -11 -231
-20 -337 2 -427 88 -82 78 -114 257 -88 488 8 73 7 68 30 170 60 263 273 698
478 978 46 63 210 276 216 282 4 3 31 34 61 70 183 217 540 562 735 711 17 13
32 26 35 29 27 33 567 416 590 419 3 1 3 -36 0 -81z"/>
</g>
</svg>
